<svg id="visual" viewBox="0 0 900 600" width="900" height="600" xmlns="http://www.w3.org/2000/svg" xmlns:xlink="http://www.w3.org/1999/xlink" version="1.1"><path d="M0 55L16.7 63C33.3 71 66.7 87 100 88C133.3 89 166.7 75 200 75C233.3 75 266.7 89 300 87C333.3 85 366.7 67 400 65C433.3 63 466.7 77 500 83C533.3 89 566.7 87 600 80C633.3 73 666.7 61 700 63C733.3 65 766.7 81 800 81C833.3 81 866.7 65 883.3 57L900 49L900 0L883.3 0C866.7 0 833.3 0 800 0C766.7 0 733.3 0 700 0C666.7 0 633.3 0 600 0C566.7 0 533.3 0 500 0C466.7 0 433.3 0 400 0C366.7 0 333.3 0 300 0C266.7 0 233.3 0 200 0C166.7 0 133.3 0 100 0C66.7 0 33.3 0 16.7 0L0 0Z" fill="#004cbb"></path><path d="M0 133L16.7 136C33.3 139 66.7 145 100 143C133.3 141 166.7 131 200 131C233.3 131 266.7 141 300 136C333.3 131 366.7 111 400 109C433.3 107 466.7 123 500 128C533.3 133 566.7 127 600 123C633.3 119 666.7 117 700 123C733.3 129 766.7 143 800 139C833.3 135 866.7 113 883.3 102L900 91L900 47L883.3 55C866.7 63 833.3 79 800 79C766.7 79 733.3 63 700 61C666.7 59 633.3 71 600 78C566.7 85 533.3 87 500 81C466.7 75 433.3 61 400 63C366.7 65 333.3 83 300 85C266.7 87 233.3 73 200 73C166.7 73 133.3 87 100 86C66.7 85 33.3 69 16.7 61L0 53Z" fill="#005ae0"></path><path d="M0 181L16.7 180C33.3 179 66.7 177 100 171C133.3 165 166.7 155 200 157C233.3 159 266.7 173 300 169C333.3 165 366.7 143 400 139C433.3 135 466.7 149 500 157C533.3 165 566.7 167 600 165C633.3 163 666.7 157 700 159C733.3 161 766.7 171 800 165C833.3 159 866.7 137 883.3 126L900 115L900 89L883.3 100C866.7 111 833.3 133 800 137C766.7 141 733.3 127 700 121C666.7 115 633.3 117 600 121C566.7 125 533.3 131 500 126C466.7 121 433.3 105 400 107C366.7 109 333.3 129 300 134C266.7 139 233.3 129 200 129C166.7 129 133.3 139 100 141C66.7 143 33.3 137 16.7 134L0 131Z" fill="#156cff"></path><path d="M0 343L16.7 329C33.3 315 66.7 287 100 282C133.3 277 166.7 295 200 308C233.3 321 266.7 329 300 327C333.3 325 366.7 313 400 304C433.3 295 466.7 289 500 286C533.3 283 566.7 283 600 284C633.3 285 666.7 287 700 288C733.3 289 766.7 289 800 284C833.3 279 866.7 269 883.3 264L900 259L900 113L883.3 124C866.7 135 833.3 157 800 163C766.7 169 733.3 159 700 157C666.7 155 633.3 161 600 163C566.7 165 533.3 163 500 155C466.7 147 433.3 133 400 137C366.7 141 333.3 163 300 167C266.7 171 233.3 157 200 155C166.7 153 133.3 163 100 169C66.7 175 33.3 177 16.7 178L0 179Z" fill="#4988ff"></path><path d="M0 409L16.7 396C33.3 383 66.7 357 100 349C133.3 341 166.7 351 200 360C233.3 369 266.7 377 300 376C333.3 375 366.7 365 400 357C433.3 349 466.7 343 500 341C533.3 339 566.7 341 600 344C633.3 347 666.7 351 700 353C733.3 355 766.7 355 800 348C833.3 341 866.7 327 883.3 320L900 313L900 257L883.3 262C866.7 267 833.3 277 800 282C766.7 287 733.3 287 700 286C666.7 285 633.3 283 600 282C566.7 281 533.3 281 500 284C466.7 287 433.3 293 400 302C366.7 311 333.3 323 300 325C266.7 327 233.3 319 200 306C166.7 293 133.3 275 100 280C66.7 285 33.3 313 16.7 327L0 341Z" fill="#6198ff"></path><path d="M0 433L16.7 420C33.3 407 66.7 381 100 374C133.3 367 166.7 379 200 388C233.3 397 266.7 403 300 401C333.3 399 366.7 389 400 380C433.3 371 466.7 363 500 361C533.3 359 566.7 363 600 366C633.3 369 666.7 371 700 376C733.3 381 766.7 389 800 386C833.3 383 866.7 369 883.3 362L900 355L900 311L883.3 318C866.7 325 833.3 339 800 346C766.7 353 733.3 353 700 351C666.7 349 633.3 345 600 342C566.7 339 533.3 337 500 339C466.7 341 433.3 347 400 355C366.7 363 333.3 373 300 374C266.7 375 233.3 367 200 358C166.7 349 133.3 339 100 347C66.7 355 33.3 381 16.7 394L0 407Z" fill="#6198ff"></path><path d="M0 523L16.7 519C33.3 515 66.7 507 100 501C133.3 495 166.7 491 200 491C233.3 491 266.7 495 300 495C333.3 495 366.7 491 400 490C433.3 489 466.7 491 500 494C533.3 497 566.7 501 600 500C633.3 499 666.7 493 700 496C733.3 499 766.7 511 800 515C833.3 519 866.7 515 883.3 513L900 511L900 353L883.3 360C866.7 367 833.3 381 800 384C766.7 387 733.3 379 700 374C666.7 369 633.3 367 600 364C566.7 361 533.3 357 500 359C466.7 361 433.3 369 400 378C366.7 387 333.3 397 300 399C266.7 401 233.3 395 200 386C166.7 377 133.3 365 100 372C66.7 379 33.3 405 16.7 418L0 431Z" fill="#4988ff"></path><path d="M0 547L16.7 543C33.3 539 66.7 531 100 527C133.3 523 166.7 523 200 523C233.3 523 266.7 523 300 522C333.3 521 366.7 519 400 520C433.3 521 466.7 525 500 528C533.3 531 566.7 533 600 532C633.3 531 666.7 527 700 529C733.3 531 766.7 539 800 543C833.3 547 866.7 547 883.3 547L900 547L900 509L883.3 511C866.7 513 833.3 517 800 513C766.7 509 733.3 497 700 494C666.7 491 633.3 497 600 498C566.7 499 533.3 495 500 492C466.7 489 433.3 487 400 488C366.7 489 333.3 493 300 493C266.7 493 233.3 489 200 489C166.7 489 133.3 493 100 499C66.7 505 33.3 513 16.7 517L0 521Z" fill="#156cff"></path><path d="M0 577L16.7 577C33.3 577 66.7 577 100 575C133.3 573 166.7 569 200 570C233.3 571 266.7 577 300 579C333.3 581 366.7 579 400 575C433.3 571 466.7 565 500 562C533.3 559 566.7 559 600 563C633.3 567 666.7 575 700 578C733.3 581 766.7 579 800 579C833.3 579 866.7 581 883.3 582L900 583L900 545L883.3 545C866.7 545 833.3 545 800 541C766.7 537 733.3 529 700 527C666.7 525 633.3 529 600 530C566.7 531 533.3 529 500 526C466.7 523 433.3 519 400 518C366.7 517 333.3 519 300 520C266.7 521 233.3 521 200 521C166.7 521 133.3 521 100 525C66.7 529 33.3 537 16.7 541L0 545Z" fill="#005ae0"></path><path d="M0 601L16.7 601C33.3 601 66.7 601 100 601C133.3 601 166.7 601 200 601C233.3 601 266.7 601 300 601C333.3 601 366.7 601 400 601C433.3 601 466.7 601 500 601C533.3 601 566.7 601 600 601C633.3 601 666.7 601 700 601C733.3 601 766.7 601 800 601C833.3 601 866.7 601 883.3 601L900 601L900 581L883.3 580C866.7 579 833.3 577 800 577C766.7 577 733.3 579 700 576C666.7 573 633.3 565 600 561C566.7 557 533.3 557 500 560C466.7 563 433.3 569 400 573C366.7 577 333.3 579 300 577C266.7 575 233.3 569 200 568C166.7 567 133.3 571 100 573C66.7 575 33.3 575 16.7 575L0 575Z" fill="#004cbb"></path></svg>